<?xml version="1.0" encoding="UTF-8"?><svg id="Layer_1" xmlns="http://www.w3.org/2000/svg" viewBox="0 0 688.15 43.72"><defs><style>.cls-1{fill:#faf8f2;}</style></defs><path class="cls-1" d="M21.56,23.8H5.09v19.2H0V.73h5.09v18.65h16.47V.73h5.09v42.27h-5.09v-19.2Z"/><path class="cls-1" d="M39,43v-4.06h10.54V4.78h-10.54V.73h26.16v4.06h-10.54v34.15h10.54v4.06h-26.16Z"/><path class="cls-1" d="M99.55,37.36h-.3c-.36.81-.79,1.6-1.27,2.36-.48.77-1.1,1.44-1.85,2.03-.75.59-1.65,1.06-2.7,1.42s-2.3.54-3.75.54c-4.6,0-8.02-1.86-10.26-5.57-2.24-3.71-3.36-9.04-3.36-15.99s1.23-12.78,3.69-16.53c2.46-3.75,6.26-5.63,11.38-5.63,1.98,0,3.69.26,5.15.79,1.45.52,2.69,1.23,3.72,2.12,1.03.89,1.89,1.89,2.57,3,.69,1.11,1.25,2.23,1.7,3.36l-4.36,2c-.36-.93-.78-1.81-1.24-2.63-.46-.83-1.03-1.55-1.7-2.18-.67-.63-1.46-1.12-2.39-1.48s-2.02-.54-3.27-.54c-3.39,0-5.88,1.27-7.48,3.81-1.6,2.54-2.39,5.93-2.39,10.17v6.54c0,2.14.16,4.09.48,5.84.32,1.76.86,3.28,1.61,4.57.75,1.29,1.71,2.29,2.91,3,1.19.71,2.65,1.06,4.39,1.06,2.75,0,4.88-.83,6.42-2.48,1.53-1.65,2.3-3.79,2.3-6.42v-4.36h-8.9v-4.06h13.62v20.89h-4.72v-5.63Z"/><path class="cls-1" d="M139.04,23.8h-16.47v19.2h-5.09V.73h5.09v18.65h16.47V.73h5.09v42.27h-5.09v-19.2Z"/><path class="cls-1" d="M158.65,43V.73h5.09v37.85h20.04v4.42h-25.13Z"/><path class="cls-1" d="M205.77,43v-16.59L191.17.73h5.81l6.06,11.02,5.15,9.63h.24l5.27-9.63,6.06-11.02h5.69l-14.59,25.68v16.59h-5.09Z"/><path class="cls-1" d="M296.78,43l-3.57-12.05h-14.84l-3.57,12.05h-5.27L282.49.73h6.72l12.96,42.27h-5.39ZM286.06,6.12h-.54l-5.93,20.41h12.41l-5.93-20.41Z"/><path class="cls-1" d="M316.28,7.39h-.42v35.61h-4.6V.73h7.21l14.41,35.61h.42V.73h4.6v42.27h-7.21l-14.41-35.61Z"/><path class="cls-1" d="M365.88,5.15v37.85h-5.09V5.15h-14.11V.73h33.31v4.42h-14.11Z"/><path class="cls-1" d="M389.01,43v-4.06h10.54V4.78h-10.54V.73h26.16v4.06h-10.54v34.15h10.54v4.06h-26.16Z"/><path class="cls-1" d="M442.24,43.72c-5.17,0-9.01-1.88-11.54-5.63-2.52-3.75-3.78-9.16-3.78-16.23s1.26-12.47,3.78-16.23c2.52-3.75,6.37-5.63,11.54-5.63,1.94,0,3.61.26,5.03.79,1.41.52,2.62,1.23,3.63,2.12,1.01.89,1.86,1.89,2.54,3,.69,1.11,1.29,2.23,1.82,3.36l-4.36,2c-.36-.93-.79-1.81-1.27-2.63-.48-.83-1.06-1.55-1.73-2.18-.67-.63-1.45-1.12-2.36-1.48-.91-.36-2.01-.54-3.3-.54-3.35,0-5.84,1.27-7.48,3.81s-2.45,5.93-2.45,10.17v6.9c0,4.24.82,7.63,2.45,10.17,1.63,2.54,4.13,3.81,7.48,3.81,1.29,0,2.39-.18,3.3-.54.91-.36,1.7-.86,2.36-1.48.67-.63,1.24-1.35,1.73-2.18.48-.83.91-1.71,1.27-2.63l4.36,2c-.53,1.17-1.13,2.3-1.82,3.39-.69,1.09-1.54,2.08-2.54,2.97-1.01.89-2.22,1.6-3.63,2.12-1.41.52-3.09.79-5.03.79Z"/><path class="cls-1" d="M466.52,43v-4.06h10.54V4.78h-10.54V.73h26.16v4.06h-10.54v34.15h10.54v4.06h-26.16Z"/><path class="cls-1" d="M505.64,43V.73h15.38c3.92,0,6.9,1.07,8.96,3.21,2.06,2.14,3.09,5.13,3.09,8.96s-1.03,6.82-3.09,8.96c-2.06,2.14-5.05,3.21-8.96,3.21h-10.29v17.92h-5.09ZM510.72,20.65h10.17c2.14,0,3.8-.53,5-1.6,1.19-1.07,1.79-2.59,1.79-4.57v-3.15c0-1.98-.6-3.5-1.79-4.57-1.19-1.07-2.86-1.6-5-1.6h-10.17v15.5Z"/><path class="cls-1" d="M568.07,43l-3.57-12.05h-14.84l-3.57,12.05h-5.27l12.96-42.27h6.72l12.96,42.27h-5.39ZM557.35,6.12h-.54l-5.93,20.41h12.41l-5.93-20.41Z"/><path class="cls-1" d="M598.41,5.15v37.85h-5.09V5.15h-14.11V.73h33.31v4.42h-14.11Z"/><path class="cls-1" d="M621.9,43V.73h26.04v4.42h-20.95v14.23h20.23v4.42h-20.23v14.78h20.95v4.42h-26.04Z"/><path class="cls-1" d="M660.96.73h11.81c5.17,0,9.02,1.78,11.57,5.33,2.54,3.55,3.81,8.82,3.81,15.81s-1.27,12.25-3.81,15.81c-2.54,3.55-6.4,5.33-11.57,5.33h-11.81V.73ZM672.53,38.57c3.39,0,5.94-1.17,7.66-3.51,1.72-2.34,2.57-5.65,2.57-9.93v-6.54c0-4.28-.86-7.59-2.57-9.93-1.72-2.34-4.27-3.51-7.66-3.51h-6.48v33.43h6.48Z"/></svg>