<?xml version="1.0" encoding="UTF-8"?><svg id="Layer_1" xmlns="http://www.w3.org/2000/svg" viewBox="0 0 871.61 84.5"><defs><style>.cls-1{fill:#0a0a0a;}</style></defs><path class="cls-1" d="M85.9,53.71c-.54-.19-1.23-.06-1.85-.06-26.43,0-52.87-.01-79.3.03-1.53,0-3.06.44-4.52.67v8.66c.55.26.98.64,1.41.64,28.15.03,56.31.03,84.27.03,2.71-2.85,1.61-5.94,1.61-8.85,0-.38-.99-.89-1.62-1.11Z"/><path class="cls-1" d="M75.9,66.47c-1.94,1.83-3.91,3.68-5.87,5.55-2.21,2.11-4.39,4.24-6.61,6.34-1.14,1.08-2.63,1.04-4.53,1.21,3.67-5.2,8.82-8.62,13.08-13.06h-9.66c-2.81,4.62-6.21,8.89-7.92,13.82h-3.7c2.68-4.85,5.12-9.26,7.63-13.8h-10.95c-.7,4.66.3,9.26-.36,14.09-1.32-.26-2.34-.46-3.53-.69,0-2.48.06-4.7-.02-6.92-.08-2.18.35-4.39-.33-6.57-3.54,0-6.9,0-10.26.02-.18,0-.35.27-.74.59,3.31,3.71,5.4,8.05,7.7,12.45-3.02.19-2.98.17-4.08-1.53-2.5-3.86-5.06-7.7-7.44-11.33-3.59.21-6.8.4-10.33.61,1.74,1.35,3.33,2.52,4.83,3.77,1.55,1.29,3.17,2.56,4.46,4.05,1.2,1.38,3.59,1.76,4.27,4.07-2.36-.21-4.13-.61-5.59-1.95-2.87-2.64-5.74-5.28-8.75-7.79-1.14-.95-2.55-1.98-3.99-2.22-2.26-.37-4.65-.1-7.48-.1.82,1.82,1.27,3.3,2.11,4.57,2.24,3.4,5.53,5.84,9.35,7.77,7.02,3.55,14.58,5.11,22.6,5.07,4.36-.02,8.73-.07,13.09.01,6.87.14,13.06-1.76,18.94-4.74,2.96-1.5,5.56-3.39,7.21-6.08,1.34-2.19,2.51-4.51,1.58-7.21h-4.72Z"/><path class="cls-1" d="M1.59,49.81c1.04,0,2.34,0,3.64,0,6.02,0,12.03,0,18.05,0,1.7,0,3.4.05,5.1-.05.71-.04,1.4-.41,2.16-.66-.42-3.74-.07-7.19,1.96-10.23,2.14-3.2,5.19-5.01,9.28-5.15.51.1,1.15.23,1.79.35,3.35.64,5.62,2.63,6.99,5.62.75,1.64,1.35,3.35,1.27,5.21-.07,1.55.23,3.05,1.07,4.62.71.03,1.48.11,2.24.1,10.46-.05,20.92-.11,31.38-.18.22,0,.44-.24.83-.46-.07-.65-.25-1.38-.21-2.1.05-.89.39-1.77.43-2.66.09-2.02.46-4.07-.37-6.18-3.6.25-7.05.96-10.54,1.36-3.62.42-7.28.48-11.13.72-.76-.26-1.88-.4-2.11-1.93.4-.45.81-1.15,1.42-1.54,1.09-.69,2.32-1.18,3.47-1.79,4.96-2.61,9.91-5.21,14.85-7.86.53-.29.94-.81,1.4-1.21-.76-3.65-2.43-6.62-4.95-9.36-3.37,1.62-6.69,3.08-9.87,4.8-3.18,1.72-6.24,3.67-9.75,4.99,1.67-3.15,4.11-5.67,6.28-8.39,2.15-2.69,4.52-5.23,6.57-8.3-3.82-2.62-7.45-5.1-11.52-6.89-.31-.13-.74.02-1.14.04-1.27,2.59-2.43,5.19-3.8,7.66-1.94,3.5-4.04,6.91-6.1,10.34-.09.14-.44.13-.67.2-.7-.5-.92-1.25-.89-2.03.06-1.92.28-3.85.28-5.77,0-2.05-.2-4.1-.26-6.15-.02-.5.17-1.01.27-1.52.33-1.66.17-3.3-.03-4.89-2.45-.52-6.71-.69-10.27-.38-.35.03-.67.33-1.26.64.32,6.2,1.19,12.46.93,18.75-.35.26-.65.49-1.07.8-4.57-5-7.87-10.89-12.37-15.89-3.71.63-6.48,2.63-9.18,5.2,2.62,2.7,5.24,5.2,7.61,7.9,2.45,2.79,4.99,5.58,6.48,9.1-.4.34-.67.57-1.06.9-.95-.41-1.94-.72-2.82-1.23-3.15-1.82-6.26-3.72-9.4-5.58-2.46-1.45-4.93-2.88-7.26-4.25-1.42.57-1.99,1.63-2.65,2.57-.59.84-1.07,1.77-1.6,2.65-.58.97-1.31,1.87-1.49,3.09,1.49,1.02,3.02,1.73,4.59,2.35,4.01,1.61,7.7,3.82,11.43,5.95,1.8,1.03,3.53,2.2,5.24,3.37.39.26.58.79,1,1.4-.71.34-1.26.83-1.82.84-3,.06-6.05.29-9.01-.1-4.17-.56-8.35-.27-12.52-.62-.73-.06-1.58-.2-2.37.8-.14,2.67-.06,5.63-.03,8.57.01.96.45,1.73,1.54,2.44Z"/><path class="cls-1" d="M205.02,44.19h-16.47v19.2h-5.09V21.12h5.09v18.65h16.47v-18.65h5.09v42.27h-5.09v-19.2Z"/><path class="cls-1" d="M222.46,63.38v-4.06h10.54V25.17h-10.54v-4.06h26.16v4.06h-10.54v34.15h10.54v4.06h-26.16Z"/><path class="cls-1" d="M283.01,57.75h-.3c-.36.81-.79,1.6-1.27,2.36-.48.77-1.1,1.44-1.85,2.03-.75.59-1.65,1.06-2.7,1.42s-2.3.54-3.75.54c-4.6,0-8.02-1.86-10.26-5.57-2.24-3.71-3.36-9.04-3.36-15.99s1.23-12.78,3.69-16.53c2.46-3.75,6.26-5.63,11.38-5.63,1.98,0,3.69.26,5.15.79,1.45.52,2.69,1.23,3.72,2.12,1.03.89,1.89,1.89,2.57,3,.69,1.11,1.25,2.23,1.7,3.36l-4.36,2c-.36-.93-.78-1.81-1.24-2.63-.46-.83-1.03-1.55-1.7-2.18-.67-.63-1.46-1.12-2.39-1.48s-2.02-.54-3.27-.54c-3.39,0-5.88,1.27-7.48,3.81-1.6,2.54-2.39,5.93-2.39,10.17v6.54c0,2.14.16,4.09.48,5.84.32,1.76.86,3.28,1.61,4.57.75,1.29,1.71,2.29,2.91,3,1.19.71,2.65,1.06,4.39,1.06,2.75,0,4.88-.83,6.42-2.48,1.53-1.65,2.3-3.79,2.3-6.42v-4.36h-8.9v-4.06h13.62v20.89h-4.72v-5.63Z"/><path class="cls-1" d="M322.5,44.19h-16.47v19.2h-5.09V21.12h5.09v18.65h16.47v-18.65h5.09v42.27h-5.09v-19.2Z"/><path class="cls-1" d="M342.11,63.38V21.12h5.09v37.85h20.04v4.42h-25.13Z"/><path class="cls-1" d="M389.23,63.38v-16.59l-14.59-25.68h5.81l6.06,11.02,5.15,9.63h.24l5.27-9.63,6.06-11.02h5.69l-14.59,25.68v16.59h-5.09Z"/><path class="cls-1" d="M480.24,63.38l-3.57-12.05h-14.84l-3.57,12.05h-5.27l12.96-42.27h6.72l12.96,42.27h-5.39ZM469.52,26.5h-.54l-5.93,20.41h12.41l-5.93-20.41Z"/><path class="cls-1" d="M499.74,27.78h-.42v35.61h-4.6V21.12h7.21l14.41,35.61h.42V21.12h4.6v42.27h-7.21l-14.41-35.61Z"/><path class="cls-1" d="M549.34,25.54v37.85h-5.09V25.54h-14.11v-4.42h33.31v4.42h-14.11Z"/><path class="cls-1" d="M572.47,63.38v-4.06h10.54V25.17h-10.54v-4.06h26.16v4.06h-10.54v34.15h10.54v4.06h-26.16Z"/><path class="cls-1" d="M625.7,64.11c-5.17,0-9.01-1.88-11.54-5.63-2.52-3.75-3.78-9.16-3.78-16.23s1.26-12.47,3.78-16.23c2.52-3.75,6.37-5.63,11.54-5.63,1.94,0,3.61.26,5.03.79,1.41.52,2.62,1.23,3.63,2.12,1.01.89,1.86,1.89,2.54,3,.69,1.11,1.29,2.23,1.82,3.36l-4.36,2c-.36-.93-.79-1.81-1.27-2.63-.48-.83-1.06-1.55-1.73-2.18-.67-.63-1.45-1.12-2.36-1.48-.91-.36-2.01-.54-3.3-.54-3.35,0-5.84,1.27-7.48,3.81s-2.45,5.93-2.45,10.17v6.9c0,4.24.82,7.63,2.45,10.17,1.63,2.54,4.13,3.81,7.48,3.81,1.29,0,2.39-.18,3.3-.54.91-.36,1.7-.86,2.36-1.48.67-.63,1.24-1.35,1.73-2.18.48-.83.91-1.71,1.27-2.63l4.36,2c-.53,1.17-1.13,2.3-1.82,3.39-.69,1.09-1.54,2.08-2.54,2.97-1.01.89-2.22,1.6-3.63,2.12-1.41.52-3.09.79-5.03.79Z"/><path class="cls-1" d="M649.98,63.38v-4.06h10.54V25.17h-10.54v-4.06h26.16v4.06h-10.54v34.15h10.54v4.06h-26.16Z"/><path class="cls-1" d="M689.1,63.38V21.12h15.38c3.92,0,6.9,1.07,8.96,3.21,2.06,2.14,3.09,5.13,3.09,8.96s-1.03,6.82-3.09,8.96c-2.06,2.14-5.05,3.21-8.96,3.21h-10.29v17.92h-5.09ZM694.18,41.04h10.17c2.14,0,3.8-.53,5-1.6,1.19-1.07,1.79-2.59,1.79-4.57v-3.15c0-1.98-.6-3.5-1.79-4.57-1.19-1.07-2.86-1.6-5-1.6h-10.17v15.5Z"/><path class="cls-1" d="M751.53,63.38l-3.57-12.05h-14.84l-3.57,12.05h-5.27l12.96-42.27h6.72l12.96,42.27h-5.39ZM740.81,26.5h-.54l-5.93,20.41h12.41l-5.93-20.41Z"/><path class="cls-1" d="M781.87,25.54v37.85h-5.09V25.54h-14.11v-4.42h33.31v4.42h-14.11Z"/><path class="cls-1" d="M805.36,63.38V21.12h26.04v4.42h-20.95v14.23h20.23v4.42h-20.23v14.78h20.95v4.42h-26.04Z"/><path class="cls-1" d="M844.42,21.12h11.81c5.17,0,9.02,1.78,11.57,5.33,2.54,3.55,3.81,8.82,3.81,15.81s-1.27,12.25-3.81,15.81c-2.54,3.55-6.4,5.33-11.57,5.33h-11.81V21.12ZM855.99,58.96c3.39,0,5.94-1.17,7.66-3.51,1.72-2.34,2.57-5.65,2.57-9.93v-6.54c0-4.28-.86-7.59-2.57-9.93-1.72-2.34-4.27-3.51-7.66-3.51h-6.48v33.43h6.48Z"/></svg>